<mxfile host="app.diagrams.net" agent="Mozilla/5.0 (Windows NT 10.0; Win64; x64) AppleWebKit/537.36 (KHTML, like Gecko) Chrome/128.0.0.0 Safari/537.36" version="24.7.14">
  <diagram id="C5RBs43oDa-KdzZeNtuy" name="Page-1">
    <mxGraphModel dx="1434" dy="900" grid="1" gridSize="10" guides="1" tooltips="1" connect="1" arrows="1" fold="1" page="1" pageScale="1" pageWidth="827" pageHeight="1169" math="0" shadow="0">
      <root>
        <mxCell id="WIyWlLk6GJQsqaUBKTNV-0" />
        <mxCell id="WIyWlLk6GJQsqaUBKTNV-1" parent="WIyWlLk6GJQsqaUBKTNV-0" />
        <mxCell id="nqQCpnGRo9kXgHlDgsDU-25" style="edgeStyle=orthogonalEdgeStyle;rounded=0;orthogonalLoop=1;jettySize=auto;html=1;" edge="1" parent="WIyWlLk6GJQsqaUBKTNV-1" source="nqQCpnGRo9kXgHlDgsDU-4" target="nqQCpnGRo9kXgHlDgsDU-24">
          <mxGeometry relative="1" as="geometry" />
        </mxCell>
        <mxCell id="nqQCpnGRo9kXgHlDgsDU-4" value="&lt;span style=&quot;color: rgb(36, 41, 47); font-family: -apple-system, BlinkMacSystemFont, &amp;quot;Segoe UI&amp;quot;, &amp;quot;Noto Sans&amp;quot;, Helvetica, Arial, sans-serif, &amp;quot;Apple Color Emoji&amp;quot;, &amp;quot;Segoe UI Emoji&amp;quot;; font-size: 14px; text-align: left; white-space-collapse: preserve; background-color: rgb(244, 246, 248);&quot;&gt;VideoTo&lt;br/&gt;TextConverter&lt;/span&gt;" style="ellipse;whiteSpace=wrap;html=1;aspect=fixed;" vertex="1" parent="WIyWlLk6GJQsqaUBKTNV-1">
          <mxGeometry x="290" y="30" width="80" height="80" as="geometry" />
        </mxCell>
        <mxCell id="nqQCpnGRo9kXgHlDgsDU-14" value="&lt;span style=&quot;color: rgb(36, 41, 47); font-family: -apple-system, BlinkMacSystemFont, &amp;quot;Segoe UI&amp;quot;, &amp;quot;Noto Sans&amp;quot;, Helvetica, Arial, sans-serif, &amp;quot;Apple Color Emoji&amp;quot;, &amp;quot;Segoe UI Emoji&amp;quot;; font-size: 14px; text-align: left; white-space-collapse: preserve; background-color: rgb(244, 246, 248);&quot;&gt;结果合并：&lt;br/&gt;text&lt;/span&gt;" style="whiteSpace=wrap;html=1;rounded=1;" vertex="1" parent="WIyWlLk6GJQsqaUBKTNV-1">
          <mxGeometry x="270" y="550" width="120" height="60" as="geometry" />
        </mxCell>
        <mxCell id="nqQCpnGRo9kXgHlDgsDU-35" style="edgeStyle=orthogonalEdgeStyle;rounded=0;orthogonalLoop=1;jettySize=auto;html=1;entryX=0;entryY=0.75;entryDx=0;entryDy=0;" edge="1" parent="WIyWlLk6GJQsqaUBKTNV-1" source="nqQCpnGRo9kXgHlDgsDU-23" target="nqQCpnGRo9kXgHlDgsDU-28">
          <mxGeometry relative="1" as="geometry">
            <Array as="points">
              <mxPoint x="230" y="470" />
              <mxPoint x="270" y="470" />
            </Array>
          </mxGeometry>
        </mxCell>
        <mxCell id="nqQCpnGRo9kXgHlDgsDU-23" value="&lt;span style=&quot;color: rgb(36, 41, 47); font-family: -apple-system, BlinkMacSystemFont, &amp;quot;Segoe UI&amp;quot;, &amp;quot;Noto Sans&amp;quot;, Helvetica, Arial, sans-serif, &amp;quot;Apple Color Emoji&amp;quot;, &amp;quot;Segoe UI Emoji&amp;quot;; font-size: 14px; text-align: left; white-space-collapse: preserve; background-color: rgb(244, 246, 248);&quot;&gt;音频处理模块&lt;/span&gt;" style="rounded=0;whiteSpace=wrap;html=1;" vertex="1" parent="WIyWlLk6GJQsqaUBKTNV-1">
          <mxGeometry x="170" y="260" width="120" height="60" as="geometry" />
        </mxCell>
        <mxCell id="nqQCpnGRo9kXgHlDgsDU-30" style="edgeStyle=orthogonalEdgeStyle;rounded=0;orthogonalLoop=1;jettySize=auto;html=1;entryX=0.5;entryY=0;entryDx=0;entryDy=0;" edge="1" parent="WIyWlLk6GJQsqaUBKTNV-1" source="nqQCpnGRo9kXgHlDgsDU-24" target="nqQCpnGRo9kXgHlDgsDU-27">
          <mxGeometry relative="1" as="geometry" />
        </mxCell>
        <mxCell id="nqQCpnGRo9kXgHlDgsDU-24" value="&lt;span style=&quot;color: rgb(36, 41, 47); font-family: -apple-system, BlinkMacSystemFont, &amp;quot;Segoe UI&amp;quot;, &amp;quot;Noto Sans&amp;quot;, Helvetica, Arial, sans-serif, &amp;quot;Apple Color Emoji&amp;quot;, &amp;quot;Segoe UI Emoji&amp;quot;; font-size: 14px; text-align: left; background-color: rgb(244, 246, 248);&quot;&gt;视频文件路径&lt;/span&gt;" style="rounded=0;whiteSpace=wrap;html=1;" vertex="1" parent="WIyWlLk6GJQsqaUBKTNV-1">
          <mxGeometry x="270" y="150" width="120" height="60" as="geometry" />
        </mxCell>
        <mxCell id="nqQCpnGRo9kXgHlDgsDU-32" style="edgeStyle=orthogonalEdgeStyle;rounded=0;orthogonalLoop=1;jettySize=auto;html=1;entryX=1;entryY=0.5;entryDx=0;entryDy=0;" edge="1" parent="WIyWlLk6GJQsqaUBKTNV-1" target="nqQCpnGRo9kXgHlDgsDU-28">
          <mxGeometry relative="1" as="geometry">
            <mxPoint x="480" y="380" as="sourcePoint" />
            <mxPoint x="470" y="490" as="targetPoint" />
            <Array as="points">
              <mxPoint x="480" y="381" />
              <mxPoint x="460" y="381" />
              <mxPoint x="460" y="470" />
            </Array>
          </mxGeometry>
        </mxCell>
        <mxCell id="nqQCpnGRo9kXgHlDgsDU-26" value="&lt;span style=&quot;white-space-collapse: preserve; color: rgb(36, 41, 47); font-family: -apple-system, BlinkMacSystemFont, &amp;quot;Segoe UI&amp;quot;, &amp;quot;Noto Sans&amp;quot;, Helvetica, Arial, sans-serif, &amp;quot;Apple Color Emoji&amp;quot;, &amp;quot;Segoe UI Emoji&amp;quot;; font-size: 14px; text-align: left; background-color: rgb(244, 246, 248);&quot;&gt;并发处理：&lt;br&gt;&lt;/span&gt;&lt;span style=&quot;color: rgb(36, 41, 47); font-family: -apple-system, BlinkMacSystemFont, &amp;quot;Segoe UI&amp;quot;, &amp;quot;Noto Sans&amp;quot;, Helvetica, Arial, sans-serif, &amp;quot;Apple Color Emoji&amp;quot;, &amp;quot;Segoe UI Emoji&amp;quot;; font-size: 14px; text-align: left; background-color: rgb(244, 246, 248);&quot;&gt;ThreadPoolExecutor&lt;/span&gt;" style="rounded=0;whiteSpace=wrap;html=1;" vertex="1" parent="WIyWlLk6GJQsqaUBKTNV-1">
          <mxGeometry x="400" y="350" width="120" height="60" as="geometry" />
        </mxCell>
        <mxCell id="nqQCpnGRo9kXgHlDgsDU-31" style="edgeStyle=orthogonalEdgeStyle;rounded=0;orthogonalLoop=1;jettySize=auto;html=1;entryX=0.5;entryY=0;entryDx=0;entryDy=0;" edge="1" parent="WIyWlLk6GJQsqaUBKTNV-1" source="nqQCpnGRo9kXgHlDgsDU-27" target="nqQCpnGRo9kXgHlDgsDU-26">
          <mxGeometry relative="1" as="geometry" />
        </mxCell>
        <mxCell id="nqQCpnGRo9kXgHlDgsDU-27" value="&lt;span style=&quot;color: rgb(36, 41, 47); font-family: -apple-system, BlinkMacSystemFont, &amp;quot;Segoe UI&amp;quot;, &amp;quot;Noto Sans&amp;quot;, Helvetica, Arial, sans-serif, &amp;quot;Apple Color Emoji&amp;quot;, &amp;quot;Segoe UI Emoji&amp;quot;; font-size: 14px; text-align: left; white-space-collapse: preserve; background-color: rgb(244, 246, 248);&quot;&gt;视频处理模块&lt;/span&gt;" style="rounded=0;whiteSpace=wrap;html=1;" vertex="1" parent="WIyWlLk6GJQsqaUBKTNV-1">
          <mxGeometry x="400" y="260" width="120" height="60" as="geometry" />
        </mxCell>
        <mxCell id="nqQCpnGRo9kXgHlDgsDU-36" style="edgeStyle=orthogonalEdgeStyle;rounded=0;orthogonalLoop=1;jettySize=auto;html=1;exitX=0.5;exitY=1;exitDx=0;exitDy=0;entryX=0.5;entryY=0;entryDx=0;entryDy=0;" edge="1" parent="WIyWlLk6GJQsqaUBKTNV-1" source="nqQCpnGRo9kXgHlDgsDU-28" target="nqQCpnGRo9kXgHlDgsDU-14">
          <mxGeometry relative="1" as="geometry" />
        </mxCell>
        <mxCell id="nqQCpnGRo9kXgHlDgsDU-28" value="&lt;span style=&quot;color: rgb(36, 41, 47); font-family: -apple-system, BlinkMacSystemFont, &amp;quot;Segoe UI&amp;quot;, &amp;quot;Noto Sans&amp;quot;, Helvetica, Arial, sans-serif, &amp;quot;Apple Color Emoji&amp;quot;, &amp;quot;Segoe UI Emoji&amp;quot;; font-size: 14px; text-align: left; white-space-collapse: preserve; background-color: rgb(244, 246, 248);&quot;&gt;结果合并处理：&lt;/span&gt;&lt;br style=&quot;color: rgb(36, 41, 47); font-family: -apple-system, BlinkMacSystemFont, &amp;quot;Segoe UI&amp;quot;, &amp;quot;Noto Sans&amp;quot;, Helvetica, Arial, sans-serif, &amp;quot;Apple Color Emoji&amp;quot;, &amp;quot;Segoe UI Emoji&amp;quot;; font-size: 14px; text-align: left; white-space-collapse: preserve;&quot;&gt;&lt;span style=&quot;color: rgb(36, 41, 47); font-family: -apple-system, BlinkMacSystemFont, &amp;quot;Segoe UI&amp;quot;, &amp;quot;Noto Sans&amp;quot;, Helvetica, Arial, sans-serif, &amp;quot;Apple Color Emoji&amp;quot;, &amp;quot;Segoe UI Emoji&amp;quot;; font-size: 14px; text-align: left; white-space-collapse: preserve; background-color: rgb(244, 246, 248);&quot;&gt;text&lt;/span&gt;" style="rounded=0;whiteSpace=wrap;html=1;" vertex="1" parent="WIyWlLk6GJQsqaUBKTNV-1">
          <mxGeometry x="270" y="440" width="120" height="60" as="geometry" />
        </mxCell>
        <mxCell id="nqQCpnGRo9kXgHlDgsDU-29" style="edgeStyle=orthogonalEdgeStyle;rounded=0;orthogonalLoop=1;jettySize=auto;html=1;entryX=0.444;entryY=0.033;entryDx=0;entryDy=0;entryPerimeter=0;" edge="1" parent="WIyWlLk6GJQsqaUBKTNV-1" source="nqQCpnGRo9kXgHlDgsDU-24" target="nqQCpnGRo9kXgHlDgsDU-23">
          <mxGeometry relative="1" as="geometry">
            <Array as="points">
              <mxPoint x="223" y="180" />
            </Array>
          </mxGeometry>
        </mxCell>
      </root>
    </mxGraphModel>
  </diagram>
</mxfile>
